# xmcd
#
# Track frame offsets:
#  150
#  15779
#  33960
#  55016
#  72474
#  88335
#  108236
#  128383
#  144222
#  159465
#  173942
#  190758
#  210469
#  231473
#
# Disc length: 3366 seconds
#
# Revision: 0
# Processed by: cddbd v1.5.1PL2 Copyright (c) Steve Scherf et al.
# Submitted via: Collectorz.com_Music_Collector 6.11
#
DISCID=af0d240e
DTITLE=Trudy Lynn - I'm Still Here
DYEAR=2006
DGENRE=Blues -  Blues Female Vocalist -  Blues Orchestra
TTITLE0=Swing Boogie
TTITLE1=Blues Singing Woman
TTITLE2=I'm Still Here
TTITLE3=Hands Off My Woman
TTITLE4=Blues Party
TTITLE5=Since I Found You
TTITLE6=Saturday Night
TTITLE7=Left Me Singing The Blues
TTITLE8=Everybody's Got A Blues Song To Sing
TTITLE9=Boogie Woogie Gumbo
TTITLE10=Starry Eyes
TTITLE11=You're The Only One
TTITLE12=Welcome Home Baby
TTITLE13=Payin' The Price
EXTD=
EXTT0=
EXTT1=
EXTT2=
EXTT3=
EXTT4=
EXTT5=
EXTT6=
EXTT7=
EXTT8=
EXTT9=
EXTT10=
EXTT11=
EXTT12=
EXTT13=
PLAYORDER=
